<svg width="640" height="360" viewBox="0 0 640 360" fill="none" xmlns="http://www.w3.org/2000/svg">
  <defs>
    <linearGradient id="bg-budget" x1="36" y1="24" x2="596" y2="332" gradientUnits="userSpaceOnUse">
      <stop stop-color="#4F46E5"/>
      <stop offset="1" stop-color="#0EA5E9"/>
    </linearGradient>
  </defs>
  <rect width="640" height="360" rx="36" fill="url(#bg-budget)"/>
  <circle cx="522" cy="78" r="40" fill="#BFDBFE" fill-opacity="0.85"/>
  <rect x="104" y="62" width="432" height="236" rx="32" fill="#fff" fill-opacity="0.95"/>
  <rect x="134" y="94" width="184" height="170" rx="22" fill="#DBEAFE"/>
  <rect x="162" y="122" width="130" height="18" rx="9" fill="#60A5FA"/>
  <rect x="162" y="152" width="118" height="12" rx="6" fill="#93C5FD"/>
  <rect x="162" y="174" width="96" height="12" rx="6" fill="#93C5FD"/>
  <rect x="162" y="206" width="58" height="32" rx="10" fill="#2563EB"/>
  <rect x="230" y="206" width="62" height="32" rx="10" fill="#22C55E"/>
  <circle cx="430" cy="152" r="58" fill="#C7D2FE"/>
  <path d="M430 152V106C455.4 106 476 126.6 476 152H430Z" fill="#818CF8"/>
  <path d="M430 152L458 188C451 194 441.9 198 430 198V152Z" fill="#22C55E"/>
  <rect x="350" y="228" width="152" height="14" rx="7" fill="#93C5FD"/>
  <rect x="350" y="252" width="118" height="12" rx="6" fill="#BFDBFE"/>
</svg>
