<svg width="640" height="360" viewBox="0 0 640 360" fill="none" xmlns="http://www.w3.org/2000/svg">
  <defs>
    <linearGradient id="bg-weather" x1="28" y1="26" x2="592" y2="334" gradientUnits="userSpaceOnUse">
      <stop stop-color="#38BDF8"/>
      <stop offset="1" stop-color="#6366F1"/>
    </linearGradient>
  </defs>
  <rect width="640" height="360" rx="36" fill="url(#bg-weather)"/>
  <circle cx="518" cy="78" r="38" fill="#FDE68A" fill-opacity="0.85"/>
  <rect x="96" y="64" width="448" height="232" rx="30" fill="#fff" fill-opacity="0.95"/>
  <circle cx="186" cy="138" r="42" fill="#FBBF24"/>
  <ellipse cx="324" cy="148" rx="90" ry="42" fill="#DBEAFE"/>
  <ellipse cx="286" cy="148" rx="36" ry="30" fill="#BFDBFE"/>
  <ellipse cx="356" cy="136" rx="34" ry="28" fill="#BFDBFE"/>
  <path d="M266 206C273 218 261 228 250 224C238 220 236 206 246 198C253 193 261 196 266 206Z" fill="#60A5FA"/>
  <path d="M322 210C329 222 317 232 306 228C294 224 292 210 302 202C309 197 317 200 322 210Z" fill="#60A5FA"/>
  <path d="M376 206C383 218 371 228 360 224C348 220 346 206 356 198C363 193 371 196 376 206Z" fill="#60A5FA"/>
  <rect x="138" y="214" width="132" height="44" rx="14" fill="#DBEAFE"/>
  <rect x="294" y="218" width="204" height="14" rx="7" fill="#93C5FD"/>
  <rect x="294" y="242" width="142" height="12" rx="6" fill="#BFDBFE"/>
</svg>
