<svg width="640" height="360" viewBox="0 0 640 360" fill="none" xmlns="http://www.w3.org/2000/svg">
  <defs>
    <linearGradient id="bg-memo" x1="40" y1="26" x2="594" y2="330" gradientUnits="userSpaceOnUse">
      <stop stop-color="#FB7185"/>
      <stop offset="1" stop-color="#F97316"/>
    </linearGradient>
  </defs>
  <rect width="640" height="360" rx="36" fill="url(#bg-memo)"/>
  <circle cx="522" cy="76" r="36" fill="#FDE68A" fill-opacity="0.85"/>
  <rect x="120" y="52" width="400" height="256" rx="28" fill="#fff" fill-opacity="0.95"/>
  <rect x="150" y="84" width="340" height="24" rx="12" fill="#FED7AA"/>
  <rect x="162" y="132" width="24" height="24" rx="7" fill="#22C55E"/>
  <path d="M170 144L176 150L186 138" stroke="white" stroke-width="4" stroke-linecap="round" stroke-linejoin="round"/>
  <rect x="198" y="138" width="238" height="12" rx="6" fill="#FDBA74"/>
  <rect x="162" y="172" width="24" height="24" rx="7" fill="#60A5FA"/>
  <rect x="198" y="178" width="212" height="12" rx="6" fill="#FDBA74"/>
  <rect x="162" y="212" width="24" height="24" rx="7" fill="#A78BFA"/>
  <rect x="198" y="218" width="248" height="12" rx="6" fill="#FDBA74"/>
  <rect x="426" y="246" width="68" height="18" rx="9" fill="#F43F5E"/>
</svg>
