<svg width="640" height="360" viewBox="0 0 640 360" fill="none" xmlns="http://www.w3.org/2000/svg">
  <defs>
    <linearGradient id="bg3" x1="20" y1="30" x2="594" y2="332" gradientUnits="userSpaceOnUse">
      <stop stop-color="#14B8A6"/>
      <stop offset="1" stop-color="#22C55E"/>
    </linearGradient>
  </defs>
  <rect width="640" height="360" rx="36" fill="url(#bg3)"/>
  <circle cx="508" cy="70" r="34" fill="#A7F3D0" fill-opacity="0.85"/>
  <rect x="128" y="54" width="384" height="252" rx="28" fill="white" fill-opacity="0.95"/>
  <rect x="162" y="92" width="238" height="18" rx="9" fill="#5EEAD4"/>
  <rect x="162" y="130" width="24" height="24" rx="7" fill="#2DD4BF"/>
  <path d="M170 142L176 148L186 136" stroke="white" stroke-width="4" stroke-linecap="round" stroke-linejoin="round"/>
  <rect x="198" y="136" width="210" height="12" rx="6" fill="#99F6E4"/>
  <rect x="162" y="170" width="24" height="24" rx="7" fill="#22C55E"/>
  <path d="M170 182L176 188L186 176" stroke="white" stroke-width="4" stroke-linecap="round" stroke-linejoin="round"/>
  <rect x="198" y="176" width="190" height="12" rx="6" fill="#86EFAC"/>
  <rect x="162" y="210" width="24" height="24" rx="7" fill="#0EA5E9"/>
  <path d="M170 222L176 228L186 216" stroke="white" stroke-width="4" stroke-linecap="round" stroke-linejoin="round"/>
  <rect x="198" y="216" width="220" height="12" rx="6" fill="#7DD3FC"/>
  <rect x="430" y="132" width="48" height="128" rx="18" fill="#D1FAE5"/>
</svg>
