<svg width="640" height="360" viewBox="0 0 640 360" fill="none" xmlns="http://www.w3.org/2000/svg">
  <defs>
    <linearGradient id="bg-event" x1="34" y1="24" x2="592" y2="334" gradientUnits="userSpaceOnUse">
      <stop stop-color="#14B8A6"/>
      <stop offset="1" stop-color="#22C55E"/>
    </linearGradient>
  </defs>
  <rect width="640" height="360" rx="36" fill="url(#bg-event)"/>
  <circle cx="516" cy="76" r="34" fill="#A7F3D0" fill-opacity="0.9"/>
  <rect x="96" y="56" width="448" height="248" rx="30" fill="#fff" fill-opacity="0.95"/>
  <rect x="126" y="86" width="190" height="170" rx="20" fill="#D1FAE5"/>
  <rect x="126" y="86" width="190" height="36" rx="12" fill="#34D399"/>
  <rect x="142" y="136" width="30" height="22" rx="6" fill="#86EFAC"/>
  <rect x="178" y="136" width="30" height="22" rx="6" fill="#86EFAC"/>
  <rect x="214" y="136" width="30" height="22" rx="6" fill="#22C55E"/>
  <rect x="250" y="136" width="30" height="22" rx="6" fill="#86EFAC"/>
  <rect x="142" y="166" width="30" height="22" rx="6" fill="#86EFAC"/>
  <rect x="178" y="166" width="30" height="22" rx="6" fill="#86EFAC"/>
  <rect x="214" y="166" width="30" height="22" rx="6" fill="#86EFAC"/>
  <rect x="250" y="166" width="30" height="22" rx="6" fill="#86EFAC"/>
  <rect x="142" y="196" width="30" height="22" rx="6" fill="#86EFAC"/>
  <rect x="178" y="196" width="30" height="22" rx="6" fill="#86EFAC"/>
  <rect x="214" y="196" width="30" height="22" rx="6" fill="#86EFAC"/>
  <rect x="250" y="196" width="30" height="22" rx="6" fill="#86EFAC"/>
  <rect x="344" y="106" width="168" height="16" rx="8" fill="#6EE7B7"/>
  <rect x="344" y="136" width="138" height="12" rx="6" fill="#A7F3D0"/>
  <rect x="344" y="158" width="154" height="12" rx="6" fill="#A7F3D0"/>
  <rect x="344" y="188" width="124" height="12" rx="6" fill="#A7F3D0"/>
  <rect x="344" y="218" width="96" height="30" rx="15" fill="#10B981"/>
</svg>
